<svg width="44" height="44" viewBox="0 0 44 44" fill="none" xmlns="http://www.w3.org/2000/svg">
<path fill-rule="evenodd" clip-rule="evenodd" d="M22 34.4667C28.8851 34.4667 34.4667 28.8851 34.4667 22C34.4667 15.1149 28.8851 9.53333 22 9.53333C15.1148 9.53333 9.53333 15.1149 9.53333 22C9.53333 28.8851 15.1148 34.4667 22 34.4667ZM22 44C34.1503 44 44 34.1503 44 22C44 9.84974 34.1503 0 22 0C9.84973 0 0 9.84974 0 22C0 34.1503 9.84973 44 22 44Z" fill="#667085"/>
<path d="M22.2515 22.4816C24.5426 20.1905 28.2572 20.1905 30.5483 22.4816L41.9562 33.8896C44.2473 36.1807 44.2473 39.8952 41.9562 42.1863C39.6652 44.4774 35.9506 44.4774 33.6595 42.1863L22.2515 30.7783C19.9605 28.4873 19.9605 24.7727 22.2515 22.4816Z" fill="#98A2B3"/>
<path d="M25.4551 33.9818L32.7004 41.2271C36.1756 39.289 39.0709 36.436 41.0605 32.9938L33.8746 25.8079C32.6124 29.7473 29.4441 32.8336 25.4551 33.9818Z" fill="#667085"/>
</svg>
