<svg width="505" height="697" viewBox="0 0 505 697" fill="none" xmlns="http://www.w3.org/2000/svg">
<mask id="path-1-inside-1_1179_8360" fill="white">
<path fill-rule="evenodd" clip-rule="evenodd" d="M244.622 4.28719C254.523 -1.42906 266.721 -1.42906 276.622 4.28719L439.477 98.312C449.378 104.028 455.477 114.592 455.477 126.025V314.074C455.477 325.507 449.378 336.071 439.477 341.787L276.622 435.812C266.721 441.528 254.523 441.528 244.622 435.812L81.7661 341.787C71.8652 336.071 65.7661 325.507 65.7661 314.074V126.025C65.7661 114.592 71.8652 104.028 81.7661 98.312L244.622 4.28719ZM52.6218 360.668C57.5722 357.81 63.6714 357.81 68.6218 360.668L113.244 386.431C118.194 389.289 121.244 394.571 121.244 400.287V451.812C121.244 457.528 118.194 462.81 113.244 465.668L68.6218 491.431C63.6714 494.289 57.5722 494.289 52.6218 491.431L8 465.668C3.04958 462.81 0 457.528 0 451.812V400.287C0 394.571 3.04958 389.289 8 386.431L52.6218 360.668ZM396.622 424.287C386.721 418.571 374.523 418.571 364.622 424.287L272.78 477.312C262.879 483.028 256.78 493.592 256.78 505.025V611.074C256.78 622.507 262.879 633.071 272.78 638.787L364.622 691.812C374.523 697.528 386.721 697.528 396.622 691.812L488.463 638.787C498.364 633.071 504.463 622.507 504.463 611.074V505.025C504.463 493.592 498.364 483.028 488.463 477.312L396.622 424.287Z"/>
</mask>
<path fill-rule="evenodd" clip-rule="evenodd" d="M244.622 4.28719C254.523 -1.42906 266.721 -1.42906 276.622 4.28719L439.477 98.312C449.378 104.028 455.477 114.592 455.477 126.025V314.074C455.477 325.507 449.378 336.071 439.477 341.787L276.622 435.812C266.721 441.528 254.523 441.528 244.622 435.812L81.7661 341.787C71.8652 336.071 65.7661 325.507 65.7661 314.074V126.025C65.7661 114.592 71.8652 104.028 81.7661 98.312L244.622 4.28719ZM52.6218 360.668C57.5722 357.81 63.6714 357.81 68.6218 360.668L113.244 386.431C118.194 389.289 121.244 394.571 121.244 400.287V451.812C121.244 457.528 118.194 462.81 113.244 465.668L68.6218 491.431C63.6714 494.289 57.5722 494.289 52.6218 491.431L8 465.668C3.04958 462.81 0 457.528 0 451.812V400.287C0 394.571 3.04958 389.289 8 386.431L52.6218 360.668ZM396.622 424.287C386.721 418.571 374.523 418.571 364.622 424.287L272.78 477.312C262.879 483.028 256.78 493.592 256.78 505.025V611.074C256.78 622.507 262.879 633.071 272.78 638.787L364.622 691.812C374.523 697.528 386.721 697.528 396.622 691.812L488.463 638.787C498.364 633.071 504.463 622.507 504.463 611.074V505.025C504.463 493.592 498.364 483.028 488.463 477.312L396.622 424.287Z" fill="#7F56D9"/>
<path d="M276.622 4.28719L277.122 3.42116V3.42116L276.622 4.28719ZM244.622 4.28719L245.122 5.15321L244.622 4.28719ZM439.477 98.312L438.977 99.178L439.477 98.312ZM439.477 341.787L438.977 340.921L439.477 341.787ZM276.622 435.812L277.122 436.678L276.622 435.812ZM244.622 435.812L244.122 436.678L244.622 435.812ZM81.7661 341.787L82.2661 340.921L81.7661 341.787ZM81.7661 98.312L82.2661 99.178H82.2661L81.7661 98.312ZM68.6218 360.668L68.1218 361.534L68.6218 360.668ZM52.6218 360.668L53.1218 361.534L52.6218 360.668ZM113.244 386.431L113.744 385.565L113.244 386.431ZM113.244 465.668L113.744 466.534L113.244 465.668ZM68.6218 491.431L68.1218 490.565L68.6218 491.431ZM52.6218 491.431L53.1218 490.565L52.6218 491.431ZM8 465.668L8.5 464.802L8 465.668ZM8 386.431L7.5 385.565L8 386.431ZM364.622 424.287L365.122 425.153L364.622 424.287ZM396.622 424.287L397.122 423.421L396.622 424.287ZM272.78 477.312L272.28 476.446L272.78 477.312ZM272.78 638.787L272.28 639.653L272.78 638.787ZM364.622 691.812L364.122 692.678L364.622 691.812ZM396.622 691.812L396.122 690.946L396.622 691.812ZM488.463 638.787L487.963 637.921L488.463 638.787ZM488.463 477.312L488.963 476.446L488.463 477.312ZM277.122 3.42116C266.912 -2.47372 254.332 -2.47372 244.122 3.42116L245.122 5.15321C254.713 -0.384405 266.53 -0.384403 276.122 5.15321L277.122 3.42116ZM439.977 97.446L277.122 3.42116L276.122 5.15321L438.977 99.178L439.977 97.446ZM456.477 126.025C456.477 114.235 450.188 103.341 439.977 97.446L438.977 99.178C448.569 104.716 454.477 114.95 454.477 126.025H456.477ZM456.477 314.074V126.025H454.477V314.074H456.477ZM439.977 342.653C450.188 336.758 456.477 325.864 456.477 314.074H454.477C454.477 325.15 448.569 335.384 438.977 340.921L439.977 342.653ZM277.122 436.678L439.977 342.653L438.977 340.921L276.122 434.946L277.122 436.678ZM244.122 436.678C254.332 442.573 266.912 442.573 277.122 436.678L276.122 434.946C266.53 440.484 254.713 440.484 245.122 434.946L244.122 436.678ZM81.2661 342.653L244.122 436.678L245.122 434.946L82.2661 340.921L81.2661 342.653ZM64.7661 314.074C64.7661 325.864 71.0558 336.758 81.2661 342.653L82.2661 340.921C72.6746 335.384 66.7661 325.15 66.7661 314.074H64.7661ZM64.7661 126.025V314.074H66.7661V126.025H64.7661ZM81.2661 97.446C71.0558 103.341 64.7661 114.235 64.7661 126.025H66.7661C66.7661 114.95 72.6746 104.716 82.2661 99.178L81.2661 97.446ZM244.122 3.42116L81.2661 97.446L82.2661 99.178L245.122 5.15321L244.122 3.42116ZM69.1218 359.802C63.862 356.766 57.3816 356.766 52.1218 359.802L53.1218 361.534C57.7628 358.855 63.4808 358.855 68.1218 361.534L69.1218 359.802ZM113.744 385.565L69.1218 359.802L68.1218 361.534L112.744 387.297L113.744 385.565ZM122.244 400.287C122.244 394.214 119.003 388.602 113.744 385.565L112.744 387.297C117.385 389.976 120.244 394.928 120.244 400.287H122.244ZM122.244 451.812V400.287H120.244V451.812H122.244ZM113.744 466.534C119.003 463.498 122.244 457.885 122.244 451.812H120.244C120.244 457.171 117.385 462.123 112.744 464.802L113.744 466.534ZM69.1218 492.297L113.744 466.534L112.744 464.802L68.1218 490.565L69.1218 492.297ZM52.1218 492.297C57.3816 495.334 63.862 495.334 69.1218 492.297L68.1218 490.565C63.4808 493.244 57.7628 493.244 53.1218 490.565L52.1218 492.297ZM7.5 466.534L52.1218 492.297L53.1218 490.565L8.5 464.802L7.5 466.534ZM-1 451.812C-1 457.885 2.24018 463.498 7.5 466.534L8.5 464.802C3.85898 462.123 1 457.171 1 451.812H-1ZM-1 400.287V451.812H1V400.287H-1ZM7.5 385.565C2.24018 388.602 -1 394.214 -1 400.287H1C1 394.928 3.85898 389.976 8.5 387.297L7.5 385.565ZM52.1218 359.802L7.5 385.565L8.5 387.297L53.1218 361.534L52.1218 359.802ZM365.122 425.153C374.713 419.616 386.53 419.616 396.122 425.153L397.122 423.421C386.912 417.526 374.332 417.526 364.122 423.421L365.122 425.153ZM273.28 478.178L365.122 425.153L364.122 423.421L272.28 476.446L273.28 478.178ZM257.78 505.025C257.78 493.95 263.689 483.716 273.28 478.178L272.28 476.446C262.07 482.341 255.78 493.235 255.78 505.025H257.78ZM257.78 611.074V505.025H255.78V611.074H257.78ZM273.28 637.921C263.689 632.384 257.78 622.15 257.78 611.074H255.78C255.78 622.864 262.07 633.758 272.28 639.653L273.28 637.921ZM365.122 690.946L273.28 637.921L272.28 639.653L364.122 692.678L365.122 690.946ZM396.122 690.946C386.53 696.484 374.713 696.484 365.122 690.946L364.122 692.678C374.332 698.573 386.912 698.573 397.122 692.678L396.122 690.946ZM487.963 637.921L396.122 690.946L397.122 692.678L488.963 639.653L487.963 637.921ZM503.463 611.074C503.463 622.15 497.555 632.384 487.963 637.921L488.963 639.653C499.174 633.758 505.463 622.864 505.463 611.074H503.463ZM503.463 505.025V611.074H505.463V505.025H503.463ZM487.963 478.178C497.555 483.716 503.463 493.95 503.463 505.025H505.463C505.463 493.235 499.174 482.341 488.963 476.446L487.963 478.178ZM396.122 425.153L487.963 478.178L488.963 476.446L397.122 423.421L396.122 425.153Z" fill="#7F56D9" mask="url(#path-1-inside-1_1179_8360)"/>
</svg>
